<svg xmlns="http://www.w3.org/2000/svg" width="108" height="24" fill="none" viewBox="0 0 108 24"><path fill="#242021" fill-rule="evenodd" d="M71.275 13.213c-.507-.68-1.174-1.26-1.946-1.93l-.02-.017-.194-.168c-.128-.11-.254-.217-.379-.321-.662-.56-1.287-1.09-1.762-1.688-.52-.631-.753-1.237-.753-1.97 0-1.461.912-2.172 2.786-2.172.711 0 1.521.059 2.279.169l.086.011v-.841l-.062-.012C70.35 4.1 69.384 4 68.659 4c-2.914 0-4.454 1.311-4.454 3.793 0 1.178.462 1.988.865 2.564.528.738 1.225 1.33 2.032 2.014l.29.246c.189.166.37.321.546.47l.111.096c.54.455 1.005.849 1.365 1.297.456.559.652 1.141.652 1.947 0 1.683-.969 2.467-3.048 2.467-1.027 0-2.074-.09-2.871-.168l-.083-.008-.003.846.063.01c1.248.196 2.365.296 3.317.296 2.942 0 4.698-1.49 4.698-3.983 0-1.028-.266-1.853-.865-2.673h-.001.002Zm15.07-9.04h-2.143l-.02 15.555h2.144l.02-15.555Zm20.236 11.5V4.184h.955v15.569l-1.239-.002-6.178-11.744v11.742h-.97V4.184l1.356-.004 6.076 11.494ZM92.791 4.002c-3.425 0-5.09 2.598-5.09 7.94 0 5.34 1.665 7.938 5.09 7.938 3.424 0 5.107-2.597 5.107-7.939 0-5.341-1.67-7.939-5.108-7.939Zm2.786 8.673-.02.056c-.942 3.375-1.722 4.97-2.694 5.506-.49.27-1.063.286-1.86.052-1.934-.568-2.494-1.692-.958-7.183.96-3.428 1.808-5.133 2.836-5.7.276-.151.578-.229.918-.229.272 0 .572.05.902.145 2.09.615 2.288 2.267.875 7.352h.001v.001ZM57.775 4.167h1.815l3.96 15.561h-2.163l-1.147-4.151h-4.325l-1.102 4.151h-.93l3.892-15.56Zm.299 2.58-1.8 7.461h3.637l-1.837-7.46Zm-3.098-1.236V4.162h-7.43v15.56h2.111v-7.09h4.629v-1.368h-4.629V5.512h5.32Zm25.285 5.754.02-7.092h2.105l-.019 15.555h-2.106v-7.1h-4.648v7.1h-2.106V4.171h2.106v7.094h4.648Z" clip-rule="evenodd"/><path fill="#FC2779" d="M22.013 5.878c.207-.386.682-1.16.096-1.45-.344-.17-.81-.274-1.165-.091-.298.153-.516.462-.662.746l-2.256 3.55c-.364.505-.711 1.141-1.46 1.224-.495.054-.855-.154-.846-.597.009-.448.27-1.057.474-1.443.587-1.114.661-1.495 1.23-2.604.544-1.059-1.24-1.301-1.684-.535-.318.548-.925 1.58-1.066 1.926-.254.628-2.145 3.638-1.323 4.83 1.057 1.347 3.857-.774 2.421 1.674-1.154 1.967-1.88 3.09-2.89 4.912-.22.393-.493.783-.567 1.238-.106.65.79.646 1.174.618.688-.051 1.009-.365 1.286-.99.144-.325.347-.73.494-1.05 1.33-2.896 2.74-5.407 4.488-8.212.823-1.32 1.568-2.465 2.256-3.747m-7.5-.963c.522-1.009-1.175-.723-1.175-.723-.615 0-.888.739-1.013.953l-1.845 3.63c-.35.596-1.49 3.165-1.876 3.737-.027-.577.008-1.736.026-2.013.075-1.096.151-1.922.264-2.93.087-.78.253-1.657.09-2.434-.1-.485-.26-.52-.954-.594-.722-.076-1.222.982-1.462 1.476-.889 1.83-1.878 3.623-2.666 5.496-.23.544-.52 1.09-.754 1.634-.28.651-.549 1.3-.855 1.94-.325.678-1.346 2.884-1.636 3.577-.315.757-.381 1.368.888 1.336.195-.005.642.047 1.188-.545.426-.462.513-.895.77-1.535a165.214 165.214 0 0 1 2.534-6.029c.099-.224.32-.859.54-1.359-.012.705-.13 1.55-.176 2.107-.165 2.039-.286 4.012-.463 6.032-.024.27-.097.596.032.851.127.253.437.32.697.352 1.013.122 1.117-.378 1.433-1.077.279-.618.452-1.124.703-1.753a93.043 93.043 0 0 1 2.508-5.764c.232-.482.467-.962.717-1.434.46-.872.843-1.696 1.346-2.662.373-.715.738-1.496 1.137-2.265m27.133 5.924c0 .024-.003.048-.004.072-.67.128-1.3.25-1.807.348.646-1.664 1.318-3.703 1.712-4.732-.028.76.135 3.55.1 4.31m-8.083 1.77c-.001.006-.006.013-.013.02-1.395.308-2.718.6-3.45.763.74-1.23 3.974-5.71 4.474-6.237-.27 1.385-.721 3.964-1.011 5.454Zm15.628-2.217c-.111-1.166-1.72-.58-2.678-.403-.361.067-1.468.276-2.741.517-.049-1.313-.026-1.05-.045-1.85-.027-1.16-.096-2.057-.162-3.084-.041-.645-.132-1.532-1.297-1.368-1.341.19-1.57.86-1.927 1.672-.933 2.116-.908 2.126-1.97 4.478-.08.177-.475 1.13-.538 1.313l-.232.063-1.539.34.009-.056c.134-1.077.304-2.15.456-3.226.136-.98.28-2.574.397-3.557.125-1.055-1.097-1.028-1.097-1.028-.744-.044-1.035.177-1.502.784-.81 1.053-1.785 2.189-2.65 3.347-1.563 2.094-2.719 3.677-4.14 5.775a55.161 55.161 0 0 1-1.593 2.26c-.365-.731-.68-1.53-.986-2.26-.44-1.049-.766-1.7-.983-2.398-.19-.613.038-.697.494-1.042 1.308-.99 2.78-1.67 4.115-2.621.945-.673 2.084-1.417 3.01-2.118 0 0 .542-.319.832-.719.371-.509-.67-1.028-.67-1.028-.585-.093-.92.04-1.327.226-.423.193-.965.622-1.33.907-.786.612-1.787 1.338-2.572 1.951-.96.75-1.61 1.21-2.66 1.834L26.539 5.1c.873-1.126-1.438-1.445-2.327-.257-.824 1.065-1.375 1.999-2.025 2.964-1.552 2.308-2.818 4.725-4.09 7.264a72.671 72.671 0 0 0-1.398 2.98c-.216.484-.833 1.604.023 1.71 1.822.228 2.12-.635 2.53-1.671.679-1.713.9-2.03 1.331-3.097.417-1.029.723-1.623 1.197-2.504.009-.015.15-.232.148-.235.088.179.64 2.032.718 2.239.375 1.003 1.044 3.338 1.42 4.399.27.88.352 1.133 1.534 1.102.59-.015.846-.238 1.233-.98.387-.74 2.078-3.872 2.078-3.872.503-.088 1.23-.214 1.7-.293.09-.016.276-.05.535-.1.175-.024.328-.053.442-.085l.02-.006a509.4 509.4 0 0 0 1.698-.336c-.115.578-.478 1.855-.542 2.178 0 0-.78 3.036.232 3.188.633.094.957-.012.957-.012 1.184-.141 1.197-1.729 1.197-1.729l.638-4.117c.467-.093.93-.185 1.376-.272l-1.39 4.69c-.199.666-.345 1.516.842 1.515.97.05 1.032-.561 1.032-.561.026-.094.791-2.57.983-3.458.123-.572.576-2.032.761-2.623a49.87 49.87 0 0 1 1.066-.198c.21-.035.624-.103 1.154-.193-.006.543-.002 1.305.006 1.41.116 1.659-.008 3.39.333 5.024.054.26.162.598.492.598.405 0 .522-.038.944-.073 1.218-.101.997-1.342.922-2.12a54.26 54.26 0 0 0-.29-2.45c-.098-.707-.16-1.63-.173-2.744l-.001-.018 4.474-.755c.56-.095.983-.046.87-1.211"/></svg>